<svg width="562" height="224" viewBox="0 0 562 224" fill="none" xmlns="http://www.w3.org/2000/svg">
<path d="M8.5 0.5H152.5C156.642 0.500001 160 3.85787 160 8V72C160 76.1421 156.642 79.5 152.5 79.5H8.5C4.35787 79.5 1 76.1421 1 72V8C1 3.85787 4.35787 0.5 8.5 0.5Z" fill="white"/>
<path d="M8.5 0.5H152.5C156.642 0.500001 160 3.85787 160 8V72C160 76.1421 156.642 79.5 152.5 79.5H8.5C4.35787 79.5 1 76.1421 1 72V8C1 3.85787 4.35787 0.5 8.5 0.5Z" stroke="#D8DEE4"/>
<path d="M40.9658 45.9775V44.8428C39.1543 44.7266 37.7734 43.7422 37.7188 42.0879L37.7256 42.0811L39.3115 42.0742L39.3184 42.0879C39.4346 42.833 39.9404 43.3662 40.9658 43.4756V40.7139L40.6172 40.6318C38.8604 40.2285 37.9033 39.4355 37.9033 38.0137V38C37.9033 36.4346 39.1816 35.416 40.9658 35.293V34.1445H41.7656V35.293C43.543 35.4365 44.7734 36.5029 44.835 38.0684V38.0752L43.249 38.082L43.2422 38.0684C43.1533 37.2686 42.5859 36.7832 41.7656 36.667V39.3193L42.1484 39.4082C43.9736 39.832 44.958 40.5703 44.958 42.0469V42.0605C44.958 43.7422 43.584 44.7129 41.7656 44.8428V45.9775H40.9658ZM39.5508 37.8906C39.5508 38.4648 39.9541 38.8682 40.9658 39.1348V36.667C40.0361 36.7764 39.5508 37.2891 39.5508 37.877V37.8906ZM43.3105 42.2109C43.3105 41.5615 42.9346 41.1924 41.7656 40.8984V43.4756C42.832 43.3867 43.3105 42.9014 43.3105 42.2246V42.2109ZM49.2172 45V36.8721H49.101L46.6469 38.6084V36.9473L49.224 35.1357H50.9809V45H49.2172ZM57.1883 45.2461C54.8436 45.2461 53.4354 43.2568 53.4354 40.0713V40.0576C53.4354 36.8721 54.8436 34.8896 57.1883 34.8896C59.533 34.8896 60.9549 36.8721 60.9549 40.0576V40.0713C60.9549 43.2568 59.533 45.2461 57.1883 45.2461ZM57.1883 43.8174C58.4461 43.8174 59.1775 42.4092 59.1775 40.0713V40.0576C59.1775 37.7197 58.4461 36.3252 57.1883 36.3252C55.9305 36.3252 55.2127 37.7197 55.2127 40.0576V40.0713C55.2127 42.4092 55.9305 43.8174 57.1883 43.8174ZM66.3219 47.4814V37.5283H68.024V38.6973H68.1402C68.5504 37.8838 69.3639 37.4053 70.4098 37.4053C72.2828 37.4053 73.4791 38.8955 73.4791 41.2607V41.2744C73.4791 43.6533 72.3033 45.123 70.4098 45.123C69.3844 45.123 68.5299 44.6172 68.1402 43.8105H68.024V47.4814H66.3219ZM69.8766 43.6875C71.0387 43.6875 71.7428 42.7715 71.7428 41.2744V41.2607C71.7428 39.7568 71.0387 38.8408 69.8766 38.8408C68.7213 38.8408 68.0035 39.7568 68.0035 41.2539V41.2676C68.0035 42.7646 68.7213 43.6875 69.8766 43.6875ZM77.082 45.123C75.6602 45.123 74.6279 44.248 74.6279 42.8877V42.874C74.6279 41.541 75.6465 40.7617 77.4648 40.6523L79.3857 40.5361V39.8936C79.3857 39.1484 78.9004 38.7383 77.9844 38.7383C77.2051 38.7383 76.6992 39.0186 76.5283 39.5107L76.5215 39.5381H74.915L74.9219 39.4766C75.0859 38.2188 76.2891 37.3848 78.0664 37.3848C79.9873 37.3848 81.0674 38.3145 81.0674 39.8936V45H79.3857V43.9746H79.2695C78.8594 44.6992 78.0664 45.123 77.082 45.123ZM76.3096 42.8057C76.3096 43.4414 76.8496 43.8174 77.6016 43.8174C78.627 43.8174 79.3857 43.1475 79.3857 42.2588V41.6572L77.7041 41.7666C76.7539 41.8281 76.3096 42.1768 76.3096 42.792V42.8057ZM83.5287 47.625C83.3236 47.625 83.0844 47.6182 82.8793 47.5977V46.292C83.016 46.3057 83.2074 46.3125 83.3852 46.3125C84.0824 46.3125 84.4994 46.0254 84.684 45.3486L84.7729 45.0068L82.1 37.5283H83.9594L85.7025 43.3662H85.8324L87.5687 37.5283H89.3598L86.6801 45.1572C86.0375 47.0303 85.183 47.625 83.5287 47.625ZM90.6727 45V37.5283H92.3748V38.6904H92.491C92.8123 37.8564 93.5643 37.3848 94.5418 37.3848C95.5535 37.3848 96.2918 37.9043 96.6131 38.7314H96.7293C97.0916 37.918 97.9529 37.3848 98.992 37.3848C100.496 37.3848 101.398 38.3076 101.398 39.8594V45H99.6961V40.2764C99.6961 39.3057 99.2518 38.8135 98.3426 38.8135C97.4539 38.8135 96.8797 39.4766 96.8797 40.3311V45H95.1775V40.1533C95.1775 39.3262 94.6648 38.8135 93.8309 38.8135C92.99 38.8135 92.3748 39.5244 92.3748 40.4541V45H90.6727ZM106.464 45.1504C104.242 45.1504 102.896 43.6602 102.896 41.2812V41.2744C102.896 38.9229 104.256 37.3848 106.382 37.3848C108.508 37.3848 109.821 38.875 109.821 41.1309V41.6914H104.598C104.618 43.0312 105.343 43.8105 106.498 43.8105C107.421 43.8105 107.947 43.3457 108.112 43.0039L108.132 42.9561H109.752L109.732 43.0176C109.492 43.9814 108.494 45.1504 106.464 45.1504ZM106.403 38.7178C105.452 38.7178 104.741 39.3604 104.612 40.5498H108.159C108.043 39.3262 107.353 38.7178 106.403 38.7178ZM111.373 45V37.5283H113.075V38.6699H113.191C113.546 37.8701 114.264 37.3848 115.344 37.3848C117.012 37.3848 117.921 38.3896 117.921 40.167V45H116.219V40.5635C116.219 39.4014 115.748 38.8135 114.715 38.8135C113.704 38.8135 113.075 39.5244 113.075 40.6455V45H111.373ZM122.721 45.0342C121.005 45.0342 120.301 44.46 120.301 43.0176V38.8477H119.139V37.5283H120.301V35.6963H122.03V37.5283H123.609V38.8477H122.03V42.6143C122.03 43.3594 122.324 43.6738 123.035 43.6738C123.274 43.6738 123.404 43.667 123.609 43.6465V44.959C123.363 45.0068 123.049 45.0342 122.721 45.0342Z" fill="#353A44"/>
<rect x="261.5" width="160" height="80" rx="8" fill="#6C7688"/>
<path d="M326.795 45.2461C324.505 45.2461 323.049 44.1182 322.926 42.416L322.919 42.3203H324.628L324.635 42.3887C324.717 43.2158 325.599 43.7627 326.85 43.7627C328.039 43.7627 328.873 43.1748 328.873 42.3271V42.3203C328.873 41.6094 328.36 41.1787 327.089 40.9053L326.029 40.6865C324.013 40.2627 323.138 39.3193 323.138 37.8496V37.8428C323.138 36.0791 324.655 34.8896 326.788 34.8896C328.976 34.8896 330.336 36.0859 330.459 37.6719L330.466 37.7607H328.777L328.764 37.6787C328.641 36.9131 327.909 36.3662 326.781 36.373C325.688 36.373 324.908 36.8857 324.908 37.7266V37.7334C324.908 38.4307 325.407 38.8682 326.638 39.1279L327.697 39.3535C329.775 39.791 330.644 40.625 330.644 42.1152V42.1221C330.644 44.043 329.16 45.2461 326.795 45.2461ZM335.497 45.1504C333.276 45.1504 331.929 43.6602 331.929 41.2812V41.2744C331.929 38.9229 333.289 37.3848 335.415 37.3848C337.541 37.3848 338.854 38.875 338.854 41.1309V41.6914H333.631C333.652 43.0312 334.376 43.8105 335.532 43.8105C336.454 43.8105 336.981 43.3457 337.145 43.0039L337.165 42.9561H338.786L338.765 43.0176C338.526 43.9814 337.528 45.1504 335.497 45.1504ZM335.436 38.7178C334.486 38.7178 333.775 39.3604 333.645 40.5498H337.193C337.077 39.3262 336.386 38.7178 335.436 38.7178ZM340.474 45V34.6367H342.177V45H340.474ZM344.248 45V34.6367H345.95V45H344.248ZM351.153 45.1504C348.931 45.1504 347.585 43.6602 347.585 41.2812V41.2744C347.585 38.9229 348.945 37.3848 351.071 37.3848C353.197 37.3848 354.509 38.875 354.509 41.1309V41.6914H349.287C349.307 43.0312 350.032 43.8105 351.187 43.8105C352.11 43.8105 352.636 43.3457 352.8 43.0039L352.821 42.9561H354.441L354.421 43.0176C354.181 43.9814 353.183 45.1504 351.153 45.1504ZM351.091 38.7178C350.141 38.7178 349.43 39.3604 349.3 40.5498H352.848C352.732 39.3262 352.042 38.7178 351.091 38.7178ZM356.062 45V37.5283H357.764V38.6768H357.88C358.133 37.877 358.816 37.4053 359.801 37.4053C360.061 37.4053 360.327 37.4395 360.491 37.4873V39.0117C360.218 38.957 359.938 38.916 359.644 38.916C358.509 38.916 357.764 39.5928 357.764 40.6592V45H356.062Z" fill="white"/>
<path d="M521.53 39.5303C521.823 39.2374 521.823 38.7626 521.53 38.4697L516.757 33.6967C516.464 33.4038 515.99 33.4038 515.697 33.6967C515.404 33.9896 515.404 34.4645 515.697 34.7574L519.939 39L515.697 43.2426C515.404 43.5355 515.404 44.0104 515.697 44.3033C515.99 44.5962 516.464 44.5962 516.757 44.3033L521.53 39.5303ZM521 39V38.25L421 38.25V39V39.75L521 39.75V39Z" fill="#474E5A"/>
<path d="M261.53 39.5303C261.823 39.2374 261.823 38.7626 261.53 38.4697L256.757 33.6967C256.464 33.4038 255.99 33.4038 255.697 33.6967C255.404 33.9896 255.404 34.4645 255.697 34.7574L259.939 39L255.697 43.2426C255.404 43.5355 255.404 44.0104 255.697 44.3033C255.99 44.5962 256.464 44.5962 256.757 44.3033L261.53 39.5303ZM261 39V38.25L161 38.25V39V39.75L261 39.75V39Z" fill="#474E5A"/>
<path d="M341.47 144.53C341.763 144.823 342.237 144.823 342.53 144.53L347.303 139.757C347.596 139.464 347.596 138.99 347.303 138.697C347.01 138.404 346.536 138.404 346.243 138.697L342 142.939L337.757 138.697C337.464 138.404 336.99 138.404 336.697 138.697C336.404 138.99 336.404 139.464 336.697 139.757L341.47 144.53ZM342 144L342.75 144L342.75 80L342 80L341.25 80L341.25 144L342 144Z" fill="#474E5A"/>
<rect width="33" height="16" transform="translate(325 102)" fill="white"/>
<path d="M328.498 114.85V113.859C327.104 113.73 325.949 112.881 325.902 111.521V111.516L326.922 111.51V111.521C327.027 112.248 327.479 112.828 328.498 112.939V110.121L328.363 110.086C326.904 109.734 326.119 109.084 326.119 107.936V107.924C326.119 106.67 327.109 105.814 328.498 105.686V104.695H329.201V105.686C330.555 105.809 331.604 106.688 331.65 107.977V107.982L330.631 107.988V107.977C330.555 107.191 329.992 106.705 329.201 106.605V109.295L329.383 109.336C330.889 109.699 331.732 110.32 331.732 111.545V111.557C331.732 112.963 330.584 113.754 329.201 113.865V114.85H328.498ZM327.139 107.865C327.139 108.434 327.49 108.879 328.498 109.125V106.605C327.607 106.729 327.139 107.291 327.139 107.854V107.865ZM329.236 110.297L329.201 110.291V112.951C330.291 112.863 330.713 112.312 330.713 111.639V111.627C330.713 110.988 330.396 110.578 329.236 110.297ZM336.391 114.199C334.521 114.199 333.408 112.494 333.408 109.775V109.764C333.408 107.045 334.521 105.346 336.391 105.346C338.26 105.346 339.385 107.045 339.385 109.764V109.775C339.385 112.494 338.26 114.199 336.391 114.199ZM336.391 113.279C337.604 113.279 338.324 111.932 338.324 109.775V109.764C338.324 107.607 337.604 106.271 336.391 106.271C335.178 106.271 334.469 107.607 334.469 109.764V109.775C334.469 111.932 335.178 113.279 336.391 113.279ZM341.488 114.059C341.072 114.059 340.727 113.713 340.727 113.297C340.727 112.875 341.072 112.535 341.488 112.535C341.91 112.535 342.25 112.875 342.25 113.297C342.25 113.713 341.91 114.059 341.488 114.059ZM346.604 114.199C345.027 114.199 343.902 113.186 343.779 111.832L343.773 111.768H344.787L344.793 111.814C344.893 112.623 345.625 113.268 346.615 113.268C347.74 113.268 348.514 112.465 348.514 111.322V111.311C348.514 110.186 347.729 109.383 346.633 109.383C346.07 109.383 345.59 109.553 345.227 109.898C345.08 110.039 344.945 110.203 344.84 110.402H343.926L344.371 105.545H349.076V106.488H345.203L344.916 109.348H345.01C345.385 108.779 346.047 108.469 346.814 108.469C348.402 108.469 349.545 109.658 349.545 111.293V111.305C349.545 113.01 348.32 114.199 346.604 114.199ZM354.01 105.346C355.557 105.346 357.191 106.436 357.191 109.617V109.629C357.191 112.512 355.99 114.199 353.939 114.199C352.521 114.199 351.467 113.367 351.18 112.119L351.162 112.043H352.223L352.246 112.107C352.504 112.816 353.096 113.256 353.951 113.256C355.545 113.256 356.16 111.645 356.184 109.793H356.072C355.762 110.484 354.965 111.1 353.822 111.1C352.234 111.1 351.051 109.893 351.051 108.27V108.258C351.051 106.57 352.305 105.346 354.01 105.346ZM354.004 110.18C355.1 110.18 355.932 109.377 355.932 108.275V108.27C355.932 107.156 355.094 106.277 354.021 106.277C352.961 106.277 352.111 107.139 352.111 108.234V108.246C352.111 109.371 352.908 110.18 354.004 110.18Z" fill="#596171"/>
<rect width="32" height="16" transform="translate(454 31)" fill="white"/>
<path d="M457.883 43.8496V42.8594C456.488 42.7305 455.334 41.8809 455.287 40.5215V40.5156L456.307 40.5098V40.5215C456.412 41.248 456.863 41.8281 457.883 41.9395V39.1211L457.748 39.0859C456.289 38.7344 455.504 38.084 455.504 36.9355V36.9238C455.504 35.6699 456.494 34.8145 457.883 34.6855V33.6953H458.586V34.6855C459.939 34.8086 460.988 35.6875 461.035 36.9766V36.9824L460.016 36.9883V36.9766C459.939 36.1914 459.377 35.7051 458.586 35.6055V38.2949L458.768 38.3359C460.273 38.6992 461.117 39.3203 461.117 40.5449V40.5566C461.117 41.9629 459.969 42.7539 458.586 42.8652V43.8496H457.883ZM456.523 36.8652C456.523 37.4336 456.875 37.8789 457.883 38.125V35.6055C456.992 35.7285 456.523 36.291 456.523 36.8535V36.8652ZM458.621 39.2969L458.586 39.291V41.9512C459.676 41.8633 460.098 41.3125 460.098 40.6387V40.627C460.098 39.9883 459.781 39.5781 458.621 39.2969ZM465.711 34.3457C467.258 34.3457 468.893 35.4355 468.893 38.6172V38.6289C468.893 41.5117 467.691 43.1992 465.641 43.1992C464.223 43.1992 463.168 42.3672 462.881 41.1191L462.863 41.043H463.924L463.947 41.1074C464.205 41.8164 464.797 42.2559 465.652 42.2559C467.246 42.2559 467.861 40.6445 467.885 38.793H467.773C467.463 39.4844 466.666 40.0996 465.523 40.0996C463.936 40.0996 462.752 38.8926 462.752 37.2695V37.2578C462.752 35.5703 464.006 34.3457 465.711 34.3457ZM465.705 39.1797C466.801 39.1797 467.633 38.377 467.633 37.2754V37.2695C467.633 36.1562 466.795 35.2773 465.723 35.2773C464.662 35.2773 463.812 36.1387 463.812 37.2344V37.2461C463.812 38.3711 464.609 39.1797 465.705 39.1797ZM470.955 43.0586C470.539 43.0586 470.193 42.7129 470.193 42.2969C470.193 41.875 470.539 41.5352 470.955 41.5352C471.377 41.5352 471.717 41.875 471.717 42.2969C471.717 42.7129 471.377 43.0586 470.955 43.0586ZM477.189 43V41.248H473.07V40.2871C474.213 38.3711 475.508 36.3086 476.691 34.5449H478.221V40.3047H479.422V41.248H478.221V43H477.189ZM474.148 40.3105H477.195V35.5234H477.125C476.176 36.9414 475.068 38.6875 474.148 40.2402V40.3105ZM483.002 43V35.7168H482.908L480.758 37.2754V36.1621L483.008 34.5449H484.057V43H483.002Z" fill="#596171"/>
<rect x="261" y="144" width="160" height="80" rx="8" fill="#675DFF"/>
<path d="M325.242 189.246C322.952 189.246 321.496 188.118 321.373 186.416L321.366 186.32H323.075L323.082 186.389C323.164 187.216 324.046 187.763 325.297 187.763C326.486 187.763 327.32 187.175 327.32 186.327V186.32C327.32 185.609 326.808 185.179 325.536 184.905L324.477 184.687C322.46 184.263 321.585 183.319 321.585 181.85V181.843C321.585 180.079 323.103 178.89 325.235 178.89C327.423 178.89 328.783 180.086 328.906 181.672L328.913 181.761H327.225L327.211 181.679C327.088 180.913 326.356 180.366 325.229 180.373C324.135 180.373 323.355 180.886 323.355 181.727V181.733C323.355 182.431 323.854 182.868 325.085 183.128L326.145 183.354C328.223 183.791 329.091 184.625 329.091 186.115V186.122C329.091 188.043 327.607 189.246 325.242 189.246ZM333.685 189.034C331.969 189.034 331.265 188.46 331.265 187.018V182.848H330.103V181.528H331.265V179.696H332.995V181.528H334.574V182.848H332.995V186.614C332.995 187.359 333.288 187.674 333.999 187.674C334.239 187.674 334.369 187.667 334.574 187.646V188.959C334.328 189.007 334.013 189.034 333.685 189.034ZM336.119 189V181.528H337.821V182.677H337.937C338.19 181.877 338.874 181.405 339.858 181.405C340.118 181.405 340.385 181.439 340.549 181.487V183.012C340.275 182.957 339.995 182.916 339.701 182.916C338.566 182.916 337.821 183.593 337.821 184.659V189H336.119ZM342.668 180.277C342.108 180.277 341.65 179.833 341.65 179.272C341.65 178.719 342.108 178.268 342.668 178.268C343.222 178.268 343.68 178.719 343.68 179.272C343.68 179.833 343.222 180.277 342.668 180.277ZM341.814 189V181.528H343.516V189H341.814ZM345.458 191.481V181.528H347.16V182.697H347.276C347.686 181.884 348.5 181.405 349.546 181.405C351.419 181.405 352.615 182.896 352.615 185.261V185.274C352.615 187.653 351.439 189.123 349.546 189.123C348.52 189.123 347.666 188.617 347.276 187.811H347.16V191.481H345.458ZM349.012 187.688C350.174 187.688 350.879 186.771 350.879 185.274V185.261C350.879 183.757 350.174 182.841 349.012 182.841C347.857 182.841 347.139 183.757 347.139 185.254V185.268C347.139 186.765 347.857 187.688 349.012 187.688ZM357.38 189.15C355.158 189.15 353.812 187.66 353.812 185.281V185.274C353.812 182.923 355.172 181.385 357.298 181.385C359.424 181.385 360.736 182.875 360.736 185.131V185.691H355.514C355.534 187.031 356.259 187.811 357.414 187.811C358.337 187.811 358.863 187.346 359.027 187.004L359.048 186.956H360.668L360.647 187.018C360.408 187.981 359.41 189.15 357.38 189.15ZM357.318 182.718C356.368 182.718 355.657 183.36 355.527 184.55H359.075C358.959 183.326 358.269 182.718 357.318 182.718Z" fill="white"/>
<path fill-rule="evenodd" clip-rule="evenodd" d="M549.011 27.1119C549.32 26.9627 549.68 26.9627 549.989 27.1119L560.652 32.2595C561.171 32.5098 561.5 33.0347 561.5 33.6104V36C561.5 36.8284 560.828 37.5 560 37.5H557.75V44.6797L560.671 46.1401C561.179 46.3942 561.5 46.9136 561.5 47.4818V49.5C561.5 50.3284 560.828 51 560 51H539C538.172 51 537.5 50.3284 537.5 49.5V47.483C537.5 46.9123 537.824 46.3911 538.335 46.1382L541.29 44.6778L541.255 37.5H539C538.172 37.5 537.5 36.8284 537.5 36V33.6104C537.5 33.0347 537.829 32.5098 538.348 32.2595L549.011 27.1119ZM555.5 45.375V37.5H553.25V45.375C553.25 45.9963 552.746 46.5 552.125 46.5C551.504 46.5 551 45.9963 551 45.375V37.5H548V45.375C548 45.9963 547.496 46.5 546.875 46.5C546.254 46.5 545.75 45.9963 545.75 45.375V37.5H543.505L543.543 45.3696C543.546 45.7995 543.302 46.193 542.917 46.3835L539.75 47.9489V48.75H559.25V47.9453L556.122 46.3812C555.741 46.1907 555.5 45.8011 555.5 45.375ZM559.25 35.25V34.0811L549.5 29.3742L539.75 34.0811V35.25H559.25Z" fill="#6C7688"/>
</svg>
