<svg width="682" height="225" viewBox="0 0 682 225" fill="none" xmlns="http://www.w3.org/2000/svg">
<path d="M8.5 0.5H152.5C156.642 0.500001 160 3.85787 160 8V72C160 76.1421 156.642 79.5 152.5 79.5H8.5C4.35787 79.5 1 76.1421 1 72V8C1 3.85787 4.35787 0.5 8.5 0.5Z" fill="white"/>
<path d="M8.5 0.5H152.5C156.642 0.500001 160 3.85787 160 8V72C160 76.1421 156.642 79.5 152.5 79.5H8.5C4.35787 79.5 1 76.1421 1 72V8C1 3.85787 4.35787 0.5 8.5 0.5Z" stroke="#D8DEE4"/>
<path d="M40.9658 45.9775V44.8428C39.1543 44.7266 37.7734 43.7422 37.7188 42.0879L37.7256 42.0811L39.3115 42.0742L39.3184 42.0879C39.4346 42.833 39.9404 43.3662 40.9658 43.4756V40.7139L40.6172 40.6318C38.8604 40.2285 37.9033 39.4355 37.9033 38.0137V38C37.9033 36.4346 39.1816 35.416 40.9658 35.293V34.1445H41.7656V35.293C43.543 35.4365 44.7734 36.5029 44.835 38.0684V38.0752L43.249 38.082L43.2422 38.0684C43.1533 37.2686 42.5859 36.7832 41.7656 36.667V39.3193L42.1484 39.4082C43.9736 39.832 44.958 40.5703 44.958 42.0469V42.0605C44.958 43.7422 43.584 44.7129 41.7656 44.8428V45.9775H40.9658ZM39.5508 37.8906C39.5508 38.4648 39.9541 38.8682 40.9658 39.1348V36.667C40.0361 36.7764 39.5508 37.2891 39.5508 37.877V37.8906ZM43.3105 42.2109C43.3105 41.5615 42.9346 41.1924 41.7656 40.8984V43.4756C42.832 43.3867 43.3105 42.9014 43.3105 42.2246V42.2109ZM49.2172 45V36.8721H49.101L46.6469 38.6084V36.9473L49.224 35.1357H50.9809V45H49.2172ZM57.1883 45.2461C54.8436 45.2461 53.4354 43.2568 53.4354 40.0713V40.0576C53.4354 36.8721 54.8436 34.8896 57.1883 34.8896C59.533 34.8896 60.9549 36.8721 60.9549 40.0576V40.0713C60.9549 43.2568 59.533 45.2461 57.1883 45.2461ZM57.1883 43.8174C58.4461 43.8174 59.1775 42.4092 59.1775 40.0713V40.0576C59.1775 37.7197 58.4461 36.3252 57.1883 36.3252C55.9305 36.3252 55.2127 37.7197 55.2127 40.0576V40.0713C55.2127 42.4092 55.9305 43.8174 57.1883 43.8174ZM66.3219 47.4814V37.5283H68.024V38.6973H68.1402C68.5504 37.8838 69.3639 37.4053 70.4098 37.4053C72.2828 37.4053 73.4791 38.8955 73.4791 41.2607V41.2744C73.4791 43.6533 72.3033 45.123 70.4098 45.123C69.3844 45.123 68.5299 44.6172 68.1402 43.8105H68.024V47.4814H66.3219ZM69.8766 43.6875C71.0387 43.6875 71.7428 42.7715 71.7428 41.2744V41.2607C71.7428 39.7568 71.0387 38.8408 69.8766 38.8408C68.7213 38.8408 68.0035 39.7568 68.0035 41.2539V41.2676C68.0035 42.7646 68.7213 43.6875 69.8766 43.6875ZM77.082 45.123C75.6602 45.123 74.6279 44.248 74.6279 42.8877V42.874C74.6279 41.541 75.6465 40.7617 77.4648 40.6523L79.3857 40.5361V39.8936C79.3857 39.1484 78.9004 38.7383 77.9844 38.7383C77.2051 38.7383 76.6992 39.0186 76.5283 39.5107L76.5215 39.5381H74.915L74.9219 39.4766C75.0859 38.2188 76.2891 37.3848 78.0664 37.3848C79.9873 37.3848 81.0674 38.3145 81.0674 39.8936V45H79.3857V43.9746H79.2695C78.8594 44.6992 78.0664 45.123 77.082 45.123ZM76.3096 42.8057C76.3096 43.4414 76.8496 43.8174 77.6016 43.8174C78.627 43.8174 79.3857 43.1475 79.3857 42.2588V41.6572L77.7041 41.7666C76.7539 41.8281 76.3096 42.1768 76.3096 42.792V42.8057ZM83.5287 47.625C83.3236 47.625 83.0844 47.6182 82.8793 47.5977V46.292C83.016 46.3057 83.2074 46.3125 83.3852 46.3125C84.0824 46.3125 84.4994 46.0254 84.684 45.3486L84.7729 45.0068L82.1 37.5283H83.9594L85.7025 43.3662H85.8324L87.5687 37.5283H89.3598L86.6801 45.1572C86.0375 47.0303 85.183 47.625 83.5287 47.625ZM90.6727 45V37.5283H92.3748V38.6904H92.491C92.8123 37.8564 93.5643 37.3848 94.5418 37.3848C95.5535 37.3848 96.2918 37.9043 96.6131 38.7314H96.7293C97.0916 37.918 97.9529 37.3848 98.992 37.3848C100.496 37.3848 101.398 38.3076 101.398 39.8594V45H99.6961V40.2764C99.6961 39.3057 99.2518 38.8135 98.3426 38.8135C97.4539 38.8135 96.8797 39.4766 96.8797 40.3311V45H95.1775V40.1533C95.1775 39.3262 94.6648 38.8135 93.8309 38.8135C92.99 38.8135 92.3748 39.5244 92.3748 40.4541V45H90.6727ZM106.464 45.1504C104.242 45.1504 102.896 43.6602 102.896 41.2812V41.2744C102.896 38.9229 104.256 37.3848 106.382 37.3848C108.508 37.3848 109.821 38.875 109.821 41.1309V41.6914H104.598C104.618 43.0312 105.343 43.8105 106.498 43.8105C107.421 43.8105 107.947 43.3457 108.112 43.0039L108.132 42.9561H109.752L109.732 43.0176C109.492 43.9814 108.494 45.1504 106.464 45.1504ZM106.403 38.7178C105.452 38.7178 104.741 39.3604 104.612 40.5498H108.159C108.043 39.3262 107.353 38.7178 106.403 38.7178ZM111.373 45V37.5283H113.075V38.6699H113.191C113.546 37.8701 114.264 37.3848 115.344 37.3848C117.012 37.3848 117.921 38.3896 117.921 40.167V45H116.219V40.5635C116.219 39.4014 115.748 38.8135 114.715 38.8135C113.704 38.8135 113.075 39.5244 113.075 40.6455V45H111.373ZM122.721 45.0342C121.005 45.0342 120.301 44.46 120.301 43.0176V38.8477H119.139V37.5283H120.301V35.6963H122.03V37.5283H123.609V38.8477H122.03V42.6143C122.03 43.3594 122.324 43.6738 123.035 43.6738C123.274 43.6738 123.404 43.667 123.609 43.6465V44.959C123.363 45.0068 123.049 45.0342 122.721 45.0342Z" fill="#353A44"/>
<rect x="261.5" width="160" height="80" rx="8" fill="#0072E9"/>
<path d="M313.642 45V35.1357H317.58C319.583 35.1357 320.936 36.4551 320.936 38.4307V38.4443C320.936 40.4131 319.583 41.7393 317.58 41.7393H315.406V45H313.642ZM317.149 36.5781H315.406V40.3174H317.149C318.414 40.3174 319.152 39.6338 319.152 38.4512V38.4375C319.152 37.2549 318.414 36.5781 317.149 36.5781ZM322.625 45V34.6367H324.327V45H322.625ZM328.368 45.123C326.946 45.123 325.913 44.248 325.913 42.8877V42.874C325.913 41.541 326.932 40.7617 328.75 40.6523L330.671 40.5361V39.8936C330.671 39.1484 330.186 38.7383 329.27 38.7383C328.491 38.7383 327.985 39.0186 327.814 39.5107L327.807 39.5381H326.201L326.207 39.4766C326.371 38.2188 327.575 37.3848 329.352 37.3848C331.273 37.3848 332.353 38.3145 332.353 39.8936V45H330.671V43.9746H330.555C330.145 44.6992 329.352 45.123 328.368 45.123ZM327.595 42.8057C327.595 43.4414 328.135 43.8174 328.887 43.8174C329.912 43.8174 330.671 43.1475 330.671 42.2588V41.6572L328.99 41.7666C328.039 41.8281 327.595 42.1768 327.595 42.792V42.8057ZM337.186 45.0342C335.471 45.0342 334.766 44.46 334.766 43.0176V38.8477H333.604V37.5283H334.766V35.6963H336.496V37.5283H338.075V38.8477H336.496V42.6143C336.496 43.3594 336.79 43.6738 337.501 43.6738C337.74 43.6738 337.87 43.667 338.075 43.6465V44.959C337.829 45.0068 337.514 45.0342 337.186 45.0342ZM340.208 45V38.8477H338.985V37.5283H340.208V36.79C340.208 35.2998 340.967 34.5684 342.628 34.5684C342.99 34.5684 343.298 34.5889 343.571 34.6367V35.8262C343.442 35.8057 343.23 35.792 342.99 35.792C342.191 35.792 341.883 36.1748 341.883 36.8857V37.5283H343.503V38.8477H341.91V45H340.208ZM347.947 45.1504C345.705 45.1504 344.351 43.6875 344.351 41.2676V41.2539C344.351 38.8545 345.725 37.3848 347.947 37.3848C350.175 37.3848 351.543 38.8477 351.543 41.2539V41.2676C351.543 43.6875 350.182 45.1504 347.947 45.1504ZM347.947 43.7695C349.129 43.7695 349.799 42.8467 349.799 41.2744V41.2607C349.799 39.6885 349.123 38.7588 347.947 38.7588C346.764 38.7588 346.087 39.6885 346.087 41.2607V41.2744C346.087 42.8467 346.764 43.7695 347.947 43.7695ZM353.102 45V37.5283H354.804V38.6768H354.92C355.173 37.877 355.856 37.4053 356.841 37.4053C357.101 37.4053 357.367 37.4395 357.531 37.4873V39.0117C357.258 38.957 356.978 38.916 356.684 38.916C355.549 38.916 354.804 39.5928 354.804 40.6592V45H353.102ZM358.871 45V37.5283H360.574V38.6904H360.69C361.011 37.8564 361.763 37.3848 362.741 37.3848C363.752 37.3848 364.491 37.9043 364.812 38.7314H364.928C365.29 37.918 366.152 37.3848 367.191 37.3848C368.695 37.3848 369.597 38.3076 369.597 39.8594V45H367.895V40.2764C367.895 39.3057 367.451 38.8135 366.541 38.8135C365.653 38.8135 365.079 39.4766 365.079 40.3311V45H363.376V40.1533C363.376 39.3262 362.864 38.8135 362.03 38.8135C361.189 38.8135 360.574 39.5244 360.574 40.4541V45H358.871Z" fill="white"/>
<path d="M521.53 40.5303C521.823 40.2374 521.823 39.7626 521.53 39.4697L516.757 34.6967C516.464 34.4038 515.99 34.4038 515.697 34.6967C515.404 34.9896 515.404 35.4645 515.697 35.7574L519.939 40L515.697 44.2426C515.404 44.5355 515.404 45.0104 515.697 45.3033C515.99 45.5962 516.464 45.5962 516.757 45.3033L521.53 40.5303ZM521 40V39.25L421 39.25V40V40.75L521 40.75V40Z" fill="#474E5A"/>
<path d="M261.53 40.5303C261.823 40.2374 261.823 39.7626 261.53 39.4697L256.757 34.6967C256.464 34.4038 255.99 34.4038 255.697 34.6967C255.404 34.9896 255.404 35.4645 255.697 35.7574L259.939 40L255.697 44.2426C255.404 44.5355 255.404 45.0104 255.697 45.3033C255.99 45.5962 256.464 45.5962 256.757 45.3033L261.53 40.5303ZM261 40V39.25L161 39.25V40V40.75L261 40.75V40Z" fill="#474E5A"/>
<path d="M341.47 145.53C341.763 145.823 342.237 145.823 342.53 145.53L347.303 140.757C347.596 140.464 347.596 139.99 347.303 139.697C347.01 139.404 346.536 139.404 346.243 139.697L342 143.939L337.757 139.697C337.464 139.404 336.99 139.404 336.697 139.697C336.404 139.99 336.404 140.464 336.697 140.757L341.47 145.53ZM342 145L342.75 145L342.75 81L342 81L341.25 81L341.25 145L342 145Z" fill="#474E5A"/>
<rect width="33" height="16" transform="translate(325 103)" fill="white"/>
<path d="M328.498 115.85V114.859C327.104 114.73 325.949 113.881 325.902 112.521V112.516L326.922 112.51V112.521C327.027 113.248 327.479 113.828 328.498 113.939V111.121L328.363 111.086C326.904 110.734 326.119 110.084 326.119 108.936V108.924C326.119 107.67 327.109 106.814 328.498 106.686V105.695H329.201V106.686C330.555 106.809 331.604 107.688 331.65 108.977V108.982L330.631 108.988V108.977C330.555 108.191 329.992 107.705 329.201 107.605V110.295L329.383 110.336C330.889 110.699 331.732 111.32 331.732 112.545V112.557C331.732 113.963 330.584 114.754 329.201 114.865V115.85H328.498ZM327.139 108.865C327.139 109.434 327.49 109.879 328.498 110.125V107.605C327.607 107.729 327.139 108.291 327.139 108.854V108.865ZM329.236 111.297L329.201 111.291V113.951C330.291 113.863 330.713 113.312 330.713 112.639V112.627C330.713 111.988 330.396 111.578 329.236 111.297ZM336.391 115.199C334.521 115.199 333.408 113.494 333.408 110.775V110.764C333.408 108.045 334.521 106.346 336.391 106.346C338.26 106.346 339.385 108.045 339.385 110.764V110.775C339.385 113.494 338.26 115.199 336.391 115.199ZM336.391 114.279C337.604 114.279 338.324 112.932 338.324 110.775V110.764C338.324 108.607 337.604 107.271 336.391 107.271C335.178 107.271 334.469 108.607 334.469 110.764V110.775C334.469 112.932 335.178 114.279 336.391 114.279ZM341.488 115.059C341.072 115.059 340.727 114.713 340.727 114.297C340.727 113.875 341.072 113.535 341.488 113.535C341.91 113.535 342.25 113.875 342.25 114.297C342.25 114.713 341.91 115.059 341.488 115.059ZM346.604 115.199C345.027 115.199 343.902 114.186 343.779 112.832L343.773 112.768H344.787L344.793 112.814C344.893 113.623 345.625 114.268 346.615 114.268C347.74 114.268 348.514 113.465 348.514 112.322V112.311C348.514 111.186 347.729 110.383 346.633 110.383C346.07 110.383 345.59 110.553 345.227 110.898C345.08 111.039 344.945 111.203 344.84 111.402H343.926L344.371 106.545H349.076V107.488H345.203L344.916 110.348H345.01C345.385 109.779 346.047 109.469 346.814 109.469C348.402 109.469 349.545 110.658 349.545 112.293V112.305C349.545 114.01 348.32 115.199 346.604 115.199ZM354.01 106.346C355.557 106.346 357.191 107.436 357.191 110.617V110.629C357.191 113.512 355.99 115.199 353.939 115.199C352.521 115.199 351.467 114.367 351.18 113.119L351.162 113.043H352.223L352.246 113.107C352.504 113.816 353.096 114.256 353.951 114.256C355.545 114.256 356.16 112.645 356.184 110.793H356.072C355.762 111.484 354.965 112.1 353.822 112.1C352.234 112.1 351.051 110.893 351.051 109.27V109.258C351.051 107.57 352.305 106.346 354.01 106.346ZM354.004 111.18C355.1 111.18 355.932 110.377 355.932 109.275V109.27C355.932 108.156 355.094 107.277 354.021 107.277C352.961 107.277 352.111 108.139 352.111 109.234V109.246C352.111 110.371 352.908 111.18 354.004 111.18Z" fill="#596171"/>
<rect width="32" height="16" transform="translate(454 32)" fill="white"/>
<path d="M457.883 44.8496V43.8594C456.488 43.7305 455.334 42.8809 455.287 41.5215V41.5156L456.307 41.5098V41.5215C456.412 42.248 456.863 42.8281 457.883 42.9395V40.1211L457.748 40.0859C456.289 39.7344 455.504 39.084 455.504 37.9355V37.9238C455.504 36.6699 456.494 35.8145 457.883 35.6855V34.6953H458.586V35.6855C459.939 35.8086 460.988 36.6875 461.035 37.9766V37.9824L460.016 37.9883V37.9766C459.939 37.1914 459.377 36.7051 458.586 36.6055V39.2949L458.768 39.3359C460.273 39.6992 461.117 40.3203 461.117 41.5449V41.5566C461.117 42.9629 459.969 43.7539 458.586 43.8652V44.8496H457.883ZM456.523 37.8652C456.523 38.4336 456.875 38.8789 457.883 39.125V36.6055C456.992 36.7285 456.523 37.291 456.523 37.8535V37.8652ZM458.621 40.2969L458.586 40.291V42.9512C459.676 42.8633 460.098 42.3125 460.098 41.6387V41.627C460.098 40.9883 459.781 40.5781 458.621 40.2969ZM465.711 35.3457C467.258 35.3457 468.893 36.4355 468.893 39.6172V39.6289C468.893 42.5117 467.691 44.1992 465.641 44.1992C464.223 44.1992 463.168 43.3672 462.881 42.1191L462.863 42.043H463.924L463.947 42.1074C464.205 42.8164 464.797 43.2559 465.652 43.2559C467.246 43.2559 467.861 41.6445 467.885 39.793H467.773C467.463 40.4844 466.666 41.0996 465.523 41.0996C463.936 41.0996 462.752 39.8926 462.752 38.2695V38.2578C462.752 36.5703 464.006 35.3457 465.711 35.3457ZM465.705 40.1797C466.801 40.1797 467.633 39.377 467.633 38.2754V38.2695C467.633 37.1562 466.795 36.2773 465.723 36.2773C464.662 36.2773 463.812 37.1387 463.812 38.2344V38.2461C463.812 39.3711 464.609 40.1797 465.705 40.1797ZM470.955 44.0586C470.539 44.0586 470.193 43.7129 470.193 43.2969C470.193 42.875 470.539 42.5352 470.955 42.5352C471.377 42.5352 471.717 42.875 471.717 43.2969C471.717 43.7129 471.377 44.0586 470.955 44.0586ZM477.189 44V42.248H473.07V41.2871C474.213 39.3711 475.508 37.3086 476.691 35.5449H478.221V41.3047H479.422V42.248H478.221V44H477.189ZM474.148 41.3105H477.195V36.5234H477.125C476.176 37.9414 475.068 39.6875 474.148 41.2402V41.3105ZM483.002 44V36.7168H482.908L480.758 38.2754V37.1621L483.008 35.5449H484.057V44H483.002Z" fill="#596171"/>
<rect x="261" y="145" width="160" height="80" rx="8" fill="#675DFF"/>
<path d="M325.242 190.246C322.952 190.246 321.496 189.118 321.373 187.416L321.366 187.32H323.075L323.082 187.389C323.164 188.216 324.046 188.763 325.297 188.763C326.486 188.763 327.32 188.175 327.32 187.327V187.32C327.32 186.609 326.808 186.179 325.536 185.905L324.477 185.687C322.46 185.263 321.585 184.319 321.585 182.85V182.843C321.585 181.079 323.103 179.89 325.235 179.89C327.423 179.89 328.783 181.086 328.906 182.672L328.913 182.761H327.225L327.211 182.679C327.088 181.913 326.356 181.366 325.229 181.373C324.135 181.373 323.355 181.886 323.355 182.727V182.733C323.355 183.431 323.854 183.868 325.085 184.128L326.145 184.354C328.223 184.791 329.091 185.625 329.091 187.115V187.122C329.091 189.043 327.607 190.246 325.242 190.246ZM333.685 190.034C331.969 190.034 331.265 189.46 331.265 188.018V183.848H330.103V182.528H331.265V180.696H332.995V182.528H334.574V183.848H332.995V187.614C332.995 188.359 333.288 188.674 333.999 188.674C334.239 188.674 334.369 188.667 334.574 188.646V189.959C334.328 190.007 334.013 190.034 333.685 190.034ZM336.119 190V182.528H337.821V183.677H337.937C338.19 182.877 338.874 182.405 339.858 182.405C340.118 182.405 340.385 182.439 340.549 182.487V184.012C340.275 183.957 339.995 183.916 339.701 183.916C338.566 183.916 337.821 184.593 337.821 185.659V190H336.119ZM342.668 181.277C342.108 181.277 341.65 180.833 341.65 180.272C341.65 179.719 342.108 179.268 342.668 179.268C343.222 179.268 343.68 179.719 343.68 180.272C343.68 180.833 343.222 181.277 342.668 181.277ZM341.814 190V182.528H343.516V190H341.814ZM345.458 192.481V182.528H347.16V183.697H347.276C347.686 182.884 348.5 182.405 349.546 182.405C351.419 182.405 352.615 183.896 352.615 186.261V186.274C352.615 188.653 351.439 190.123 349.546 190.123C348.52 190.123 347.666 189.617 347.276 188.811H347.16V192.481H345.458ZM349.012 188.688C350.174 188.688 350.879 187.771 350.879 186.274V186.261C350.879 184.757 350.174 183.841 349.012 183.841C347.857 183.841 347.139 184.757 347.139 186.254V186.268C347.139 187.765 347.857 188.688 349.012 188.688ZM357.38 190.15C355.158 190.15 353.812 188.66 353.812 186.281V186.274C353.812 183.923 355.172 182.385 357.298 182.385C359.424 182.385 360.736 183.875 360.736 186.131V186.691H355.514C355.534 188.031 356.259 188.811 357.414 188.811C358.337 188.811 358.863 188.346 359.027 188.004L359.048 187.956H360.668L360.647 188.018C360.408 188.981 359.41 190.15 357.38 190.15ZM357.318 183.718C356.368 183.718 355.657 184.36 355.527 185.55H359.075C358.959 184.326 358.269 183.718 357.318 183.718Z" fill="white"/>
<rect x="522" width="160" height="80" rx="8" fill="#6C7688"/>
<path d="M587.295 45.2461C585.005 45.2461 583.549 44.1182 583.426 42.416L583.419 42.3203H585.128L585.135 42.3887C585.217 43.2158 586.099 43.7627 587.35 43.7627C588.539 43.7627 589.373 43.1748 589.373 42.3271V42.3203C589.373 41.6094 588.86 41.1787 587.589 40.9053L586.529 40.6865C584.513 40.2627 583.638 39.3193 583.638 37.8496V37.8428C583.638 36.0791 585.155 34.8896 587.288 34.8896C589.476 34.8896 590.836 36.0859 590.959 37.6719L590.966 37.7607H589.277L589.264 37.6787C589.141 36.9131 588.409 36.3662 587.281 36.373C586.188 36.373 585.408 36.8857 585.408 37.7266V37.7334C585.408 38.4307 585.907 38.8682 587.138 39.1279L588.197 39.3535C590.275 39.791 591.144 40.625 591.144 42.1152V42.1221C591.144 44.043 589.66 45.2461 587.295 45.2461ZM595.997 45.1504C593.776 45.1504 592.429 43.6602 592.429 41.2812V41.2744C592.429 38.9229 593.789 37.3848 595.915 37.3848C598.041 37.3848 599.354 38.875 599.354 41.1309V41.6914H594.131C594.152 43.0312 594.876 43.8105 596.032 43.8105C596.954 43.8105 597.481 43.3457 597.645 43.0039L597.665 42.9561H599.286L599.265 43.0176C599.026 43.9814 598.028 45.1504 595.997 45.1504ZM595.936 38.7178C594.986 38.7178 594.275 39.3604 594.145 40.5498H597.693C597.577 39.3262 596.886 38.7178 595.936 38.7178ZM600.974 45V34.6367H602.677V45H600.974ZM604.748 45V34.6367H606.45V45H604.748ZM611.653 45.1504C609.431 45.1504 608.085 43.6602 608.085 41.2812V41.2744C608.085 38.9229 609.445 37.3848 611.571 37.3848C613.697 37.3848 615.009 38.875 615.009 41.1309V41.6914H609.787C609.807 43.0312 610.532 43.8105 611.687 43.8105C612.61 43.8105 613.136 43.3457 613.3 43.0039L613.321 42.9561H614.941L614.921 43.0176C614.681 43.9814 613.683 45.1504 611.653 45.1504ZM611.591 38.7178C610.641 38.7178 609.93 39.3604 609.8 40.5498H613.348C613.232 39.3262 612.542 38.7178 611.591 38.7178ZM616.562 45V37.5283H618.264V38.6768H618.38C618.633 37.877 619.316 37.4053 620.301 37.4053C620.561 37.4053 620.827 37.4395 620.991 37.4873V39.0117C620.718 38.957 620.438 38.916 620.144 38.916C619.009 38.916 618.264 39.5928 618.264 40.6592V45H616.562Z" fill="white"/>
</svg>
